<svg width="24" height="24" viewBox="0 0 24 24" fill="none" xmlns="http://www.w3.org/2000/svg">
<path fill-rule="evenodd" clip-rule="evenodd" d="M1.75 12C1.75 11.5858 2.08579 11.25 2.5 11.25L20.5007 11.25C20.9149 11.25 21.2507 11.5858 21.2507 12C21.2507 12.4142 20.9149 12.75 20.5007 12.75L2.5 12.75C2.08579 12.75 1.75 12.4142 1.75 12Z" fill="#3A466D"/>
<path fill-rule="evenodd" clip-rule="evenodd" d="M16.0199 5.42386C16.3381 5.15868 16.811 5.20167 17.0762 5.51987L21.8096 11.1998C22.1959 11.6633 22.1959 12.3367 21.8096 12.8003L17.0762 18.4802C16.811 18.7984 16.3381 18.8414 16.0199 18.5762C15.7017 18.311 15.6587 17.8381 15.9239 17.5199L20.5239 12L15.9239 6.48017C15.6587 6.16197 15.7017 5.68904 16.0199 5.42386Z" fill="#3A466D"/>
</svg>
