<svg width="24" height="31" viewBox="0 0 24 31" fill="none" xmlns="http://www.w3.org/2000/svg">
<circle cx="12" cy="21" r="10" fill="#0F50A4"/>
<path d="M18.5 8.91804C18.5 14.8696 13.6593 20.3075 12.3327 21.686C12.1474 21.8786 11.8526 21.8786 11.6673 21.686C10.3407 20.3075 5.5 14.8696 5.5 8.91804C5.5 4.78011 8.75 2.02148 12 2.02148C15.25 2.02148 18.5 4.78011 18.5 8.91804Z" fill="white"/>
<path fill-rule="evenodd" clip-rule="evenodd" d="M12 2.77148C9.15729 2.77148 6.25 5.20121 6.25 8.91804C6.25 11.6999 7.38582 14.4091 8.72797 16.6288C9.93645 18.6275 11.2793 20.1755 12 20.9468C12.7207 20.1755 14.0636 18.6275 15.272 16.6288C16.6142 14.4091 17.75 11.6999 17.75 8.91804C17.75 5.20121 14.8427 2.77148 12 2.77148ZM4.75 8.91804C4.75 4.359 8.34271 1.27148 12 1.27148C15.6573 1.27148 19.25 4.359 19.25 8.91804C19.25 12.0877 17.9655 15.0732 16.5556 17.405C15.1405 19.7454 13.5581 21.4943 12.8731 22.2061C12.3928 22.7052 11.6072 22.7052 11.1269 22.2061C10.4419 21.4943 8.8595 19.7454 7.44436 17.405C6.03452 15.0732 4.75 12.0877 4.75 8.91804Z" fill="white"/>
<path d="M14.5 9C14.5 10.3807 13.3807 11.5 12 11.5C10.6193 11.5 9.5 10.3807 9.5 9C9.5 7.61929 10.6193 6.5 12 6.5C13.3807 6.5 14.5 7.61929 14.5 9Z" fill="white"/>
<path fill-rule="evenodd" clip-rule="evenodd" d="M12 7.25C11.0335 7.25 10.25 8.0335 10.25 9C10.25 9.9665 11.0335 10.75 12 10.75C12.9665 10.75 13.75 9.9665 13.75 9C13.75 8.0335 12.9665 7.25 12 7.25ZM8.75 9C8.75 7.20507 10.2051 5.75 12 5.75C13.7949 5.75 15.25 7.20507 15.25 9C15.25 10.7949 13.7949 12.25 12 12.25C10.2051 12.25 8.75 10.7949 8.75 9Z" fill="#0F50A4"/>
</svg>
