<svg width="42" height="43" viewBox="0 0 42 43" fill="none" xmlns="http://www.w3.org/2000/svg">
<rect y="0.5" width="42" height="42" rx="21" fill="#F03B02"/>
<g clip-path="url(#clip0_398_17310)">
<path d="M18.1523 16.2361L16.2275 13.0281C15.9748 12.6069 15.4366 12.4624 15.0263 12.7325C14.0376 13.3834 12.3781 14.6526 12.0054 16.0427C11.472 18.0321 13.3484 21.1107 13.4169 21.2221L13.421 21.2286C13.4928 21.3372 15.2636 24.0122 16.7166 25.4653C18.1697 26.9184 20.8447 28.6892 20.9535 28.7611L20.9601 28.7653C21.0716 28.8338 24.15 30.7098 26.1394 30.1767C27.5295 29.8042 28.7989 28.1454 29.4502 27.1568C29.7205 26.7465 29.576 26.2082 29.1547 25.9554L25.9466 24.0305C25.5271 23.7788 24.9837 23.901 24.7123 24.3081L23.8181 25.6494C23.5384 26.0689 22.9743 26.1834 22.5609 25.8948C21.6365 25.2495 20.0677 24.1051 19.0724 23.1097C18.0772 22.1145 16.9328 20.546 16.2875 19.6215C15.9988 19.208 16.1135 18.6437 16.5332 18.3641L17.8745 17.4706C18.2818 17.1993 18.4041 16.6558 18.1523 16.2361Z" fill="white"/>
<path fill-rule="evenodd" clip-rule="evenodd" d="M14.6487 12.1575C15.4115 11.6553 16.3799 11.9444 16.8174 12.6736L18.7422 15.8816C19.1829 16.6161 18.9689 17.5672 18.256 18.042L16.9147 18.9355C16.8067 19.0075 16.7899 19.1388 16.8516 19.2272C17.4973 20.1522 18.6112 21.675 19.5589 22.6228C20.5068 23.5706 22.0299 24.6846 22.9548 25.3303C23.0432 25.392 23.1745 25.3753 23.2465 25.2673L24.1407 23.926C24.6157 23.2135 25.5665 22.9997 26.3008 23.4402L29.5089 25.3651C30.2382 25.8027 30.5272 26.7715 30.0247 27.5342C29.6862 28.0481 29.1786 28.7497 28.5635 29.378C27.9604 29.9941 27.1902 30.6062 26.3178 30.84C25.0895 31.1692 23.6365 30.7505 22.5917 30.3346C21.507 29.9027 20.6714 29.3938 20.6005 29.3502L20.5902 29.3439L20.5751 29.3341C20.4777 29.2698 17.7418 27.4616 16.2309 25.9506C14.72 24.4397 12.9119 21.7038 12.8477 21.6066L12.842 21.598L12.8315 21.5814C12.788 21.5106 12.279 20.6749 11.8471 19.5902C11.4311 18.5453 11.0124 17.0922 11.3417 15.8639C11.5757 14.9914 12.1881 14.2213 12.8044 13.6182C13.4329 13.0033 14.1347 12.4958 14.6487 12.1575ZM15.5178 13.2867C15.4784 13.2768 15.4411 13.282 15.4048 13.3059C14.93 13.6185 14.3076 14.0711 13.766 14.601C13.2123 15.1428 12.8086 15.7024 12.6698 16.2199C12.4658 16.981 12.7186 18.0618 13.1246 19.0815C13.5021 20.0297 13.9483 20.7716 13.9992 20.8551C14.1203 21.0381 15.8265 23.6017 17.2032 24.9784C18.5799 26.3551 21.1436 28.0614 21.3266 28.1825C21.4104 28.2336 22.1522 28.6796 23.1003 29.0571C24.1199 29.463 25.2008 29.7158 25.9619 29.5119C26.4795 29.3732 27.0391 28.9696 27.581 28.4161C28.111 27.8747 28.5637 27.2525 28.8765 26.7778C28.9004 26.7415 28.9056 26.7042 28.8957 26.6648C28.8851 26.6227 28.8556 26.5767 28.8014 26.5441L25.5933 24.6193C25.4884 24.5564 25.3526 24.5869 25.2848 24.6887L24.3905 26.03C23.9032 26.761 22.9063 26.9733 22.1678 26.4578C21.2438 25.8128 19.6295 24.6379 18.5867 23.5951C17.5439 22.5523 16.3691 20.9382 15.7241 20.0142C15.2085 19.2755 15.4211 18.2783 16.1524 17.7911L17.4937 16.8977C17.5956 16.8298 17.6262 16.694 17.5632 16.589L15.6384 13.381C15.6059 13.3268 15.5598 13.2974 15.5178 13.2867Z" fill="white"/>
<path fill-rule="evenodd" clip-rule="evenodd" d="M21.2358 15.9144C21.2826 15.5376 21.6259 15.27 22.0028 15.3168L21.918 15.9991C22.0028 15.3168 22.003 15.3169 22.0033 15.3169L22.0039 15.317L22.0052 15.3171L22.0082 15.3175L22.0159 15.3186L22.0385 15.3218C22.0566 15.3245 22.0809 15.3284 22.1109 15.3337C22.1708 15.3443 22.2538 15.3607 22.3571 15.3851C22.5635 15.4339 22.8514 15.5149 23.1977 15.6465C23.8908 15.9097 24.8187 16.3756 25.7957 17.1897C26.7737 18.0047 27.3443 18.7884 27.6731 19.3895C27.8371 19.6893 27.9397 19.9415 28.0028 20.1268C28.0343 20.2194 28.0559 20.2952 28.0703 20.3518C28.0775 20.3801 28.083 20.4036 28.0869 20.4219L28.0918 20.4456L28.0935 20.4545L28.0942 20.4582L28.0945 20.4599L28.0947 20.4607C28.0947 20.4611 28.0948 20.4614 27.418 20.5824L28.0948 20.4614C28.1616 20.8352 27.9128 21.1924 27.539 21.2592C27.168 21.3255 26.8133 21.0808 26.7428 20.7116C26.7422 20.7091 26.7407 20.7023 26.7379 20.6914C26.7321 20.6684 26.7206 20.6272 26.7011 20.5698C26.6621 20.4552 26.5907 20.276 26.4668 20.0493C26.2198 19.5978 25.7592 18.9491 24.9154 18.246C24.0706 17.542 23.2797 17.1485 22.7095 16.9319C22.4242 16.8235 22.1943 16.7595 22.0408 16.7232C21.9641 16.7051 21.9067 16.6939 21.8712 16.6877C21.8534 16.6845 21.8412 16.6826 21.8347 16.6816L21.8298 16.6809C21.4548 16.6324 21.1891 16.29 21.2358 15.9144Z" fill="white"/>
<path fill-rule="evenodd" clip-rule="evenodd" d="M21.2381 12.2318C21.294 11.8562 21.6438 11.5972 22.0194 11.6531L21.9181 12.3331C22.0194 11.6531 22.0197 11.6532 22.02 11.6532L22.0207 11.6533L22.0223 11.6536L22.0262 11.6541L22.0365 11.6558L22.0676 11.6612C22.093 11.6657 22.1274 11.6723 22.1704 11.6815C22.2564 11.6997 22.3767 11.7282 22.527 11.7708C22.8278 11.8561 23.2489 11.9983 23.7566 12.2297C24.773 12.6929 26.1316 13.5119 27.5604 14.9407C28.9893 16.3695 29.8082 17.7281 30.2715 18.7446C30.5029 19.2522 30.6451 19.6734 30.7304 19.9741C30.773 20.1245 30.8014 20.2448 30.8197 20.3308C30.8288 20.3738 30.8354 20.4082 30.84 20.4335L30.8454 20.4647L30.847 20.475L30.8476 20.4788L30.8479 20.4804L30.848 20.4811C30.848 20.4815 30.8481 20.4818 30.1681 20.5831L30.8481 20.4818C30.904 20.8573 30.6449 21.2071 30.2694 21.2631C29.8949 21.3189 29.546 21.0614 29.4885 20.6875C29.4885 20.6875 29.4885 20.6875 29.4885 20.6875C29.4885 20.6875 29.4885 20.6875 29.4885 20.6875L29.4867 20.6769C29.4846 20.6654 29.4808 20.6451 29.4747 20.6165C29.4626 20.5592 29.4414 20.4688 29.4075 20.3493C29.3397 20.1102 29.2208 19.7547 29.0203 19.3149C28.6199 18.4363 27.892 17.2168 26.5882 15.913C25.2844 14.6092 24.0648 13.8812 23.1863 13.4808C22.7465 13.2803 22.391 13.1614 22.1519 13.0936C22.0323 13.0597 21.9419 13.0386 21.8847 13.0264C21.8561 13.0204 21.8358 13.0165 21.8243 13.0145M21.2381 12.2318C21.1823 12.6063 21.4397 12.9552 21.8136 13.0126L21.2381 12.2318Z" fill="white"/>
</g>
<defs>
<clipPath id="clip0_398_17310">
<rect width="22" height="22" fill="white" transform="translate(10 10.5)"/>
</clipPath>
</defs>
</svg>
